<svg xmlns="http://www.w3.org/2000/svg" width="1120" height="620" viewBox="0 0 1120 620">
<rect width="100%" height="100%" fill="white"/>
<text x="560.0" y="30" text-anchor="middle" font-family="Arial" font-size="22" font-weight="700">3x3 Punishment Strength Comparison</text>
<line x1="78" y1="548" x2="840" y2="548" stroke="#222" stroke-width="1.5"/>
<line x1="78" y1="58" x2="78" y2="548" stroke="#222" stroke-width="1.5"/>
<line x1="78" y1="548.00" x2="840" y2="548.00" stroke="#e5e7eb"/>
<text x="68" y="552.00" text-anchor="end" font-family="Arial" font-size="12">0</text>
<line x1="78" y1="450.00" x2="840" y2="450.00" stroke="#e5e7eb"/>
<text x="68" y="454.00" text-anchor="end" font-family="Arial" font-size="12">30</text>
<line x1="78" y1="352.00" x2="840" y2="352.00" stroke="#e5e7eb"/>
<text x="68" y="356.00" text-anchor="end" font-family="Arial" font-size="12">60</text>
<line x1="78" y1="254.00" x2="840" y2="254.00" stroke="#e5e7eb"/>
<text x="68" y="258.00" text-anchor="end" font-family="Arial" font-size="12">90</text>
<line x1="78" y1="156.00" x2="840" y2="156.00" stroke="#e5e7eb"/>
<text x="68" y="160.00" text-anchor="end" font-family="Arial" font-size="12">120</text>
<line x1="78" y1="58.00" x2="840" y2="58.00" stroke="#e5e7eb"/>
<text x="68" y="62.00" text-anchor="end" font-family="Arial" font-size="12">150</text>
<line x1="78.00" y1="548" x2="78.00" y2="554" stroke="#222"/>
<text x="78.00" y="572" text-anchor="middle" font-family="Arial" font-size="12">0</text>
<line x1="155.76" y1="548" x2="155.76" y2="554" stroke="#222"/>
<text x="155.76" y="572" text-anchor="middle" font-family="Arial" font-size="12">5</text>
<line x1="233.51" y1="548" x2="233.51" y2="554" stroke="#222"/>
<text x="233.51" y="572" text-anchor="middle" font-family="Arial" font-size="12">10</text>
<line x1="311.27" y1="548" x2="311.27" y2="554" stroke="#222"/>
<text x="311.27" y="572" text-anchor="middle" font-family="Arial" font-size="12">15</text>
<line x1="389.02" y1="548" x2="389.02" y2="554" stroke="#222"/>
<text x="389.02" y="572" text-anchor="middle" font-family="Arial" font-size="12">20</text>
<line x1="451.22" y1="548" x2="451.22" y2="554" stroke="#222"/>
<text x="451.22" y="572" text-anchor="middle" font-family="Arial" font-size="12">24</text>
<line x1="528.98" y1="548" x2="528.98" y2="554" stroke="#222"/>
<text x="528.98" y="572" text-anchor="middle" font-family="Arial" font-size="12">29</text>
<line x1="606.73" y1="548" x2="606.73" y2="554" stroke="#222"/>
<text x="606.73" y="572" text-anchor="middle" font-family="Arial" font-size="12">34</text>
<line x1="684.49" y1="548" x2="684.49" y2="554" stroke="#222"/>
<text x="684.49" y="572" text-anchor="middle" font-family="Arial" font-size="12">39</text>
<line x1="762.24" y1="548" x2="762.24" y2="554" stroke="#222"/>
<text x="762.24" y="572" text-anchor="middle" font-family="Arial" font-size="12">44</text>
<line x1="840.00" y1="548" x2="840.00" y2="554" stroke="#222"/>
<text x="840.00" y="572" text-anchor="middle" font-family="Arial" font-size="12">49</text>
<polyline fill="none" stroke="#2563eb" stroke-width="2.5" points="78.00,473.11 93.55,485.82 109.10,439.59 124.65,405.92 140.20,452.77 155.76,68.08 171.31,440.31 186.86,442.18 202.41,425.61 217.96,59.13 233.51,455.75 249.06,462.78 264.61,405.88 280.16,462.00 295.71,62.99 311.27,409.93 326.82,58.00 342.37,405.68 357.92,58.00 373.47,434.78 389.02,59.87 404.57,312.65 420.12,458.17 435.67,417.03 451.22,412.96 466.78,409.65 482.33,444.95 497.88,353.24 513.43,394.16 528.98,481.19 544.53,386.52 560.08,485.76 575.63,58.00 591.18,469.95 606.73,459.69 622.29,346.56 637.84,481.90 653.39,402.55 668.94,59.98 684.49,425.48 700.04,396.32 715.59,445.51 731.14,429.29 746.69,352.70 762.24,456.25 777.80,461.74 793.35,299.80 808.90,464.83 824.45,58.00 840.00,67.17"/>
<circle cx="78.00" cy="473.11" r="3.5" fill="#2563eb"/>
<circle cx="93.55" cy="485.82" r="3.5" fill="#2563eb"/>
<circle cx="109.10" cy="439.59" r="3.5" fill="#2563eb"/>
<circle cx="124.65" cy="405.92" r="3.5" fill="#2563eb"/>
<circle cx="140.20" cy="452.77" r="3.5" fill="#2563eb"/>
<circle cx="155.76" cy="68.08" r="3.5" fill="#2563eb"/>
<circle cx="171.31" cy="440.31" r="3.5" fill="#2563eb"/>
<circle cx="186.86" cy="442.18" r="3.5" fill="#2563eb"/>
<circle cx="202.41" cy="425.61" r="3.5" fill="#2563eb"/>
<circle cx="217.96" cy="59.13" r="3.5" fill="#2563eb"/>
<circle cx="233.51" cy="455.75" r="3.5" fill="#2563eb"/>
<circle cx="249.06" cy="462.78" r="3.5" fill="#2563eb"/>
<circle cx="264.61" cy="405.88" r="3.5" fill="#2563eb"/>
<circle cx="280.16" cy="462.00" r="3.5" fill="#2563eb"/>
<circle cx="295.71" cy="62.99" r="3.5" fill="#2563eb"/>
<circle cx="311.27" cy="409.93" r="3.5" fill="#2563eb"/>
<circle cx="326.82" cy="58.00" r="3.5" fill="#2563eb"/>
<circle cx="342.37" cy="405.68" r="3.5" fill="#2563eb"/>
<circle cx="357.92" cy="58.00" r="3.5" fill="#2563eb"/>
<circle cx="373.47" cy="434.78" r="3.5" fill="#2563eb"/>
<circle cx="389.02" cy="59.87" r="3.5" fill="#2563eb"/>
<circle cx="404.57" cy="312.65" r="3.5" fill="#2563eb"/>
<circle cx="420.12" cy="458.17" r="3.5" fill="#2563eb"/>
<circle cx="435.67" cy="417.03" r="3.5" fill="#2563eb"/>
<circle cx="451.22" cy="412.96" r="3.5" fill="#2563eb"/>
<circle cx="466.78" cy="409.65" r="3.5" fill="#2563eb"/>
<circle cx="482.33" cy="444.95" r="3.5" fill="#2563eb"/>
<circle cx="497.88" cy="353.24" r="3.5" fill="#2563eb"/>
<circle cx="513.43" cy="394.16" r="3.5" fill="#2563eb"/>
<circle cx="528.98" cy="481.19" r="3.5" fill="#2563eb"/>
<circle cx="544.53" cy="386.52" r="3.5" fill="#2563eb"/>
<circle cx="560.08" cy="485.76" r="3.5" fill="#2563eb"/>
<circle cx="575.63" cy="58.00" r="3.5" fill="#2563eb"/>
<circle cx="591.18" cy="469.95" r="3.5" fill="#2563eb"/>
<circle cx="606.73" cy="459.69" r="3.5" fill="#2563eb"/>
<circle cx="622.29" cy="346.56" r="3.5" fill="#2563eb"/>
<circle cx="637.84" cy="481.90" r="3.5" fill="#2563eb"/>
<circle cx="653.39" cy="402.55" r="3.5" fill="#2563eb"/>
<circle cx="668.94" cy="59.98" r="3.5" fill="#2563eb"/>
<circle cx="684.49" cy="425.48" r="3.5" fill="#2563eb"/>
<circle cx="700.04" cy="396.32" r="3.5" fill="#2563eb"/>
<circle cx="715.59" cy="445.51" r="3.5" fill="#2563eb"/>
<circle cx="731.14" cy="429.29" r="3.5" fill="#2563eb"/>
<circle cx="746.69" cy="352.70" r="3.5" fill="#2563eb"/>
<circle cx="762.24" cy="456.25" r="3.5" fill="#2563eb"/>
<circle cx="777.80" cy="461.74" r="3.5" fill="#2563eb"/>
<circle cx="793.35" cy="299.80" r="3.5" fill="#2563eb"/>
<circle cx="808.90" cy="464.83" r="3.5" fill="#2563eb"/>
<circle cx="824.45" cy="58.00" r="3.5" fill="#2563eb"/>
<circle cx="840.00" cy="67.17" r="3.5" fill="#2563eb"/>
<line x1="866" y1="80" x2="888" y2="80" stroke="#2563eb" stroke-width="3"/>
<text x="896" y="84" font-family="Arial" font-size="13">regular</text>
<polyline fill="none" stroke="#dc2626" stroke-width="2.5" points="78.00,189.36 93.55,189.71 109.10,194.85 124.65,178.84 140.20,211.88 155.76,183.24 171.31,141.67 186.86,188.82 202.41,152.86 217.96,206.94 233.51,173.05 249.06,212.69 264.61,132.55 280.16,244.83 295.71,132.41 311.27,192.39 326.82,237.23 342.37,160.46 357.92,182.46 373.47,182.20 389.02,229.30 404.57,155.04 420.12,338.39 435.67,216.30 451.22,209.90 466.78,152.56 482.33,228.30 497.88,213.58 513.43,168.41 528.98,226.12 544.53,208.55 560.08,161.31 575.63,180.61 591.18,209.77 606.73,187.64 622.29,208.62 637.84,190.13 653.39,211.21 668.94,199.45 684.49,279.98 700.04,116.54 715.59,255.46 731.14,137.55 746.69,203.21 762.24,251.23 777.80,156.26 793.35,273.14 808.90,343.03 824.45,137.36 840.00,203.41"/>
<circle cx="78.00" cy="189.36" r="3.5" fill="#dc2626"/>
<circle cx="93.55" cy="189.71" r="3.5" fill="#dc2626"/>
<circle cx="109.10" cy="194.85" r="3.5" fill="#dc2626"/>
<circle cx="124.65" cy="178.84" r="3.5" fill="#dc2626"/>
<circle cx="140.20" cy="211.88" r="3.5" fill="#dc2626"/>
<circle cx="155.76" cy="183.24" r="3.5" fill="#dc2626"/>
<circle cx="171.31" cy="141.67" r="3.5" fill="#dc2626"/>
<circle cx="186.86" cy="188.82" r="3.5" fill="#dc2626"/>
<circle cx="202.41" cy="152.86" r="3.5" fill="#dc2626"/>
<circle cx="217.96" cy="206.94" r="3.5" fill="#dc2626"/>
<circle cx="233.51" cy="173.05" r="3.5" fill="#dc2626"/>
<circle cx="249.06" cy="212.69" r="3.5" fill="#dc2626"/>
<circle cx="264.61" cy="132.55" r="3.5" fill="#dc2626"/>
<circle cx="280.16" cy="244.83" r="3.5" fill="#dc2626"/>
<circle cx="295.71" cy="132.41" r="3.5" fill="#dc2626"/>
<circle cx="311.27" cy="192.39" r="3.5" fill="#dc2626"/>
<circle cx="326.82" cy="237.23" r="3.5" fill="#dc2626"/>
<circle cx="342.37" cy="160.46" r="3.5" fill="#dc2626"/>
<circle cx="357.92" cy="182.46" r="3.5" fill="#dc2626"/>
<circle cx="373.47" cy="182.20" r="3.5" fill="#dc2626"/>
<circle cx="389.02" cy="229.30" r="3.5" fill="#dc2626"/>
<circle cx="404.57" cy="155.04" r="3.5" fill="#dc2626"/>
<circle cx="420.12" cy="338.39" r="3.5" fill="#dc2626"/>
<circle cx="435.67" cy="216.30" r="3.5" fill="#dc2626"/>
<circle cx="451.22" cy="209.90" r="3.5" fill="#dc2626"/>
<circle cx="466.78" cy="152.56" r="3.5" fill="#dc2626"/>
<circle cx="482.33" cy="228.30" r="3.5" fill="#dc2626"/>
<circle cx="497.88" cy="213.58" r="3.5" fill="#dc2626"/>
<circle cx="513.43" cy="168.41" r="3.5" fill="#dc2626"/>
<circle cx="528.98" cy="226.12" r="3.5" fill="#dc2626"/>
<circle cx="544.53" cy="208.55" r="3.5" fill="#dc2626"/>
<circle cx="560.08" cy="161.31" r="3.5" fill="#dc2626"/>
<circle cx="575.63" cy="180.61" r="3.5" fill="#dc2626"/>
<circle cx="591.18" cy="209.77" r="3.5" fill="#dc2626"/>
<circle cx="606.73" cy="187.64" r="3.5" fill="#dc2626"/>
<circle cx="622.29" cy="208.62" r="3.5" fill="#dc2626"/>
<circle cx="637.84" cy="190.13" r="3.5" fill="#dc2626"/>
<circle cx="653.39" cy="211.21" r="3.5" fill="#dc2626"/>
<circle cx="668.94" cy="199.45" r="3.5" fill="#dc2626"/>
<circle cx="684.49" cy="279.98" r="3.5" fill="#dc2626"/>
<circle cx="700.04" cy="116.54" r="3.5" fill="#dc2626"/>
<circle cx="715.59" cy="255.46" r="3.5" fill="#dc2626"/>
<circle cx="731.14" cy="137.55" r="3.5" fill="#dc2626"/>
<circle cx="746.69" cy="203.21" r="3.5" fill="#dc2626"/>
<circle cx="762.24" cy="251.23" r="3.5" fill="#dc2626"/>
<circle cx="777.80" cy="156.26" r="3.5" fill="#dc2626"/>
<circle cx="793.35" cy="273.14" r="3.5" fill="#dc2626"/>
<circle cx="808.90" cy="343.03" r="3.5" fill="#dc2626"/>
<circle cx="824.45" cy="137.36" r="3.5" fill="#dc2626"/>
<circle cx="840.00" cy="203.41" r="3.5" fill="#dc2626"/>
<line x1="866" y1="106" x2="888" y2="106" stroke="#dc2626" stroke-width="3"/>
<text x="896" y="110" font-family="Arial" font-size="13">punishment_1.0</text>
<polyline fill="none" stroke="#16a34a" stroke-width="2.5" points="78.00,347.03 93.55,225.75 109.10,270.53 124.65,297.42 140.20,275.60 155.76,304.11 171.31,309.66 186.86,288.52 202.41,295.68 217.96,218.18 233.51,208.27 249.06,157.20 264.61,354.24 280.16,271.05 295.71,272.90 311.27,214.36 326.82,210.60 342.37,237.51 357.92,278.37 373.47,223.66 389.02,472.50 404.57,315.96 420.12,280.66 435.67,244.27 451.22,374.47 466.78,207.44 482.33,221.14 497.88,264.06 513.43,327.43 528.98,224.01 544.53,249.78 560.08,251.63 575.63,320.16 591.18,346.10 606.73,289.28 622.29,222.99 637.84,354.37 653.39,180.26 668.94,343.86 684.49,241.52 700.04,204.48 715.59,320.23 731.14,220.29 746.69,442.31 762.24,339.65 777.80,339.06 793.35,258.18 808.90,286.14 824.45,291.52 840.00,389.20"/>
<circle cx="78.00" cy="347.03" r="3.5" fill="#16a34a"/>
<circle cx="93.55" cy="225.75" r="3.5" fill="#16a34a"/>
<circle cx="109.10" cy="270.53" r="3.5" fill="#16a34a"/>
<circle cx="124.65" cy="297.42" r="3.5" fill="#16a34a"/>
<circle cx="140.20" cy="275.60" r="3.5" fill="#16a34a"/>
<circle cx="155.76" cy="304.11" r="3.5" fill="#16a34a"/>
<circle cx="171.31" cy="309.66" r="3.5" fill="#16a34a"/>
<circle cx="186.86" cy="288.52" r="3.5" fill="#16a34a"/>
<circle cx="202.41" cy="295.68" r="3.5" fill="#16a34a"/>
<circle cx="217.96" cy="218.18" r="3.5" fill="#16a34a"/>
<circle cx="233.51" cy="208.27" r="3.5" fill="#16a34a"/>
<circle cx="249.06" cy="157.20" r="3.5" fill="#16a34a"/>
<circle cx="264.61" cy="354.24" r="3.5" fill="#16a34a"/>
<circle cx="280.16" cy="271.05" r="3.5" fill="#16a34a"/>
<circle cx="295.71" cy="272.90" r="3.5" fill="#16a34a"/>
<circle cx="311.27" cy="214.36" r="3.5" fill="#16a34a"/>
<circle cx="326.82" cy="210.60" r="3.5" fill="#16a34a"/>
<circle cx="342.37" cy="237.51" r="3.5" fill="#16a34a"/>
<circle cx="357.92" cy="278.37" r="3.5" fill="#16a34a"/>
<circle cx="373.47" cy="223.66" r="3.5" fill="#16a34a"/>
<circle cx="389.02" cy="472.50" r="3.5" fill="#16a34a"/>
<circle cx="404.57" cy="315.96" r="3.5" fill="#16a34a"/>
<circle cx="420.12" cy="280.66" r="3.5" fill="#16a34a"/>
<circle cx="435.67" cy="244.27" r="3.5" fill="#16a34a"/>
<circle cx="451.22" cy="374.47" r="3.5" fill="#16a34a"/>
<circle cx="466.78" cy="207.44" r="3.5" fill="#16a34a"/>
<circle cx="482.33" cy="221.14" r="3.5" fill="#16a34a"/>
<circle cx="497.88" cy="264.06" r="3.5" fill="#16a34a"/>
<circle cx="513.43" cy="327.43" r="3.5" fill="#16a34a"/>
<circle cx="528.98" cy="224.01" r="3.5" fill="#16a34a"/>
<circle cx="544.53" cy="249.78" r="3.5" fill="#16a34a"/>
<circle cx="560.08" cy="251.63" r="3.5" fill="#16a34a"/>
<circle cx="575.63" cy="320.16" r="3.5" fill="#16a34a"/>
<circle cx="591.18" cy="346.10" r="3.5" fill="#16a34a"/>
<circle cx="606.73" cy="289.28" r="3.5" fill="#16a34a"/>
<circle cx="622.29" cy="222.99" r="3.5" fill="#16a34a"/>
<circle cx="637.84" cy="354.37" r="3.5" fill="#16a34a"/>
<circle cx="653.39" cy="180.26" r="3.5" fill="#16a34a"/>
<circle cx="668.94" cy="343.86" r="3.5" fill="#16a34a"/>
<circle cx="684.49" cy="241.52" r="3.5" fill="#16a34a"/>
<circle cx="700.04" cy="204.48" r="3.5" fill="#16a34a"/>
<circle cx="715.59" cy="320.23" r="3.5" fill="#16a34a"/>
<circle cx="731.14" cy="220.29" r="3.5" fill="#16a34a"/>
<circle cx="746.69" cy="442.31" r="3.5" fill="#16a34a"/>
<circle cx="762.24" cy="339.65" r="3.5" fill="#16a34a"/>
<circle cx="777.80" cy="339.06" r="3.5" fill="#16a34a"/>
<circle cx="793.35" cy="258.18" r="3.5" fill="#16a34a"/>
<circle cx="808.90" cy="286.14" r="3.5" fill="#16a34a"/>
<circle cx="824.45" cy="291.52" r="3.5" fill="#16a34a"/>
<circle cx="840.00" cy="389.20" r="3.5" fill="#16a34a"/>
<line x1="866" y1="132" x2="888" y2="132" stroke="#16a34a" stroke-width="3"/>
<text x="896" y="136" font-family="Arial" font-size="13">punishment_0.5</text>
<polyline fill="none" stroke="#9333ea" stroke-width="2.5" points="78.00,339.26 93.55,383.82 109.10,298.56 124.65,337.87 140.20,332.01 155.76,348.73 171.31,206.37 186.86,347.64 202.41,344.31 217.96,278.04 233.51,319.53 249.06,404.18 264.61,264.37 280.16,155.96 295.71,229.87 311.27,357.20 326.82,301.39 342.37,453.72 357.92,237.95 373.47,339.26 389.02,477.51 404.57,409.69 420.12,414.11 435.67,383.29 451.22,295.46 466.78,218.52 482.33,385.71 497.88,281.90 513.43,315.70 528.98,343.81 544.53,366.40 560.08,257.83 575.63,288.37 591.18,292.63 606.73,468.42 622.29,373.49 637.84,368.49 653.39,385.02 668.94,337.41 684.49,218.65 700.04,283.53 715.59,287.89 731.14,328.61 746.69,320.10 762.24,289.74 777.80,287.97 793.35,288.84 808.90,333.29 824.45,454.14 840.00,347.32"/>
<circle cx="78.00" cy="339.26" r="3.5" fill="#9333ea"/>
<circle cx="93.55" cy="383.82" r="3.5" fill="#9333ea"/>
<circle cx="109.10" cy="298.56" r="3.5" fill="#9333ea"/>
<circle cx="124.65" cy="337.87" r="3.5" fill="#9333ea"/>
<circle cx="140.20" cy="332.01" r="3.5" fill="#9333ea"/>
<circle cx="155.76" cy="348.73" r="3.5" fill="#9333ea"/>
<circle cx="171.31" cy="206.37" r="3.5" fill="#9333ea"/>
<circle cx="186.86" cy="347.64" r="3.5" fill="#9333ea"/>
<circle cx="202.41" cy="344.31" r="3.5" fill="#9333ea"/>
<circle cx="217.96" cy="278.04" r="3.5" fill="#9333ea"/>
<circle cx="233.51" cy="319.53" r="3.5" fill="#9333ea"/>
<circle cx="249.06" cy="404.18" r="3.5" fill="#9333ea"/>
<circle cx="264.61" cy="264.37" r="3.5" fill="#9333ea"/>
<circle cx="280.16" cy="155.96" r="3.5" fill="#9333ea"/>
<circle cx="295.71" cy="229.87" r="3.5" fill="#9333ea"/>
<circle cx="311.27" cy="357.20" r="3.5" fill="#9333ea"/>
<circle cx="326.82" cy="301.39" r="3.5" fill="#9333ea"/>
<circle cx="342.37" cy="453.72" r="3.5" fill="#9333ea"/>
<circle cx="357.92" cy="237.95" r="3.5" fill="#9333ea"/>
<circle cx="373.47" cy="339.26" r="3.5" fill="#9333ea"/>
<circle cx="389.02" cy="477.51" r="3.5" fill="#9333ea"/>
<circle cx="404.57" cy="409.69" r="3.5" fill="#9333ea"/>
<circle cx="420.12" cy="414.11" r="3.5" fill="#9333ea"/>
<circle cx="435.67" cy="383.29" r="3.5" fill="#9333ea"/>
<circle cx="451.22" cy="295.46" r="3.5" fill="#9333ea"/>
<circle cx="466.78" cy="218.52" r="3.5" fill="#9333ea"/>
<circle cx="482.33" cy="385.71" r="3.5" fill="#9333ea"/>
<circle cx="497.88" cy="281.90" r="3.5" fill="#9333ea"/>
<circle cx="513.43" cy="315.70" r="3.5" fill="#9333ea"/>
<circle cx="528.98" cy="343.81" r="3.5" fill="#9333ea"/>
<circle cx="544.53" cy="366.40" r="3.5" fill="#9333ea"/>
<circle cx="560.08" cy="257.83" r="3.5" fill="#9333ea"/>
<circle cx="575.63" cy="288.37" r="3.5" fill="#9333ea"/>
<circle cx="591.18" cy="292.63" r="3.5" fill="#9333ea"/>
<circle cx="606.73" cy="468.42" r="3.5" fill="#9333ea"/>
<circle cx="622.29" cy="373.49" r="3.5" fill="#9333ea"/>
<circle cx="637.84" cy="368.49" r="3.5" fill="#9333ea"/>
<circle cx="653.39" cy="385.02" r="3.5" fill="#9333ea"/>
<circle cx="668.94" cy="337.41" r="3.5" fill="#9333ea"/>
<circle cx="684.49" cy="218.65" r="3.5" fill="#9333ea"/>
<circle cx="700.04" cy="283.53" r="3.5" fill="#9333ea"/>
<circle cx="715.59" cy="287.89" r="3.5" fill="#9333ea"/>
<circle cx="731.14" cy="328.61" r="3.5" fill="#9333ea"/>
<circle cx="746.69" cy="320.10" r="3.5" fill="#9333ea"/>
<circle cx="762.24" cy="289.74" r="3.5" fill="#9333ea"/>
<circle cx="777.80" cy="287.97" r="3.5" fill="#9333ea"/>
<circle cx="793.35" cy="288.84" r="3.5" fill="#9333ea"/>
<circle cx="808.90" cy="333.29" r="3.5" fill="#9333ea"/>
<circle cx="824.45" cy="454.14" r="3.5" fill="#9333ea"/>
<circle cx="840.00" cy="347.32" r="3.5" fill="#9333ea"/>
<line x1="866" y1="158" x2="888" y2="158" stroke="#9333ea" stroke-width="3"/>
<text x="896" y="162" font-family="Arial" font-size="13">punishment_0.25</text>
<text x="459.0" y="600" text-anchor="middle" font-family="Arial" font-size="14">Batch number</text>
<text transform="translate(22 303.0) rotate(-90)" text-anchor="middle" font-family="Arial" font-size="14">Average steps per batch</text>
</svg>