<svg xmlns="http://www.w3.org/2000/svg" width="1120" height="620" viewBox="0 0 1120 620">
<rect width="100%" height="100%" fill="white"/>
<text x="560.0" y="30" text-anchor="middle" font-family="Arial" font-size="22" font-weight="700">3x3 Punishment Strength Comparison (5-batch rolling average)</text>
<line x1="78" y1="548" x2="840" y2="548" stroke="#222" stroke-width="1.5"/>
<line x1="78" y1="58" x2="78" y2="548" stroke="#222" stroke-width="1.5"/>
<line x1="78" y1="548.00" x2="840" y2="548.00" stroke="#e5e7eb"/>
<text x="68" y="552.00" text-anchor="end" font-family="Arial" font-size="12">0</text>
<line x1="78" y1="450.00" x2="840" y2="450.00" stroke="#e5e7eb"/>
<text x="68" y="454.00" text-anchor="end" font-family="Arial" font-size="12">30</text>
<line x1="78" y1="352.00" x2="840" y2="352.00" stroke="#e5e7eb"/>
<text x="68" y="356.00" text-anchor="end" font-family="Arial" font-size="12">60</text>
<line x1="78" y1="254.00" x2="840" y2="254.00" stroke="#e5e7eb"/>
<text x="68" y="258.00" text-anchor="end" font-family="Arial" font-size="12">90</text>
<line x1="78" y1="156.00" x2="840" y2="156.00" stroke="#e5e7eb"/>
<text x="68" y="160.00" text-anchor="end" font-family="Arial" font-size="12">120</text>
<line x1="78" y1="58.00" x2="840" y2="58.00" stroke="#e5e7eb"/>
<text x="68" y="62.00" text-anchor="end" font-family="Arial" font-size="12">150</text>
<line x1="78.00" y1="548" x2="78.00" y2="554" stroke="#222"/>
<text x="78.00" y="572" text-anchor="middle" font-family="Arial" font-size="12">0</text>
<line x1="155.76" y1="548" x2="155.76" y2="554" stroke="#222"/>
<text x="155.76" y="572" text-anchor="middle" font-family="Arial" font-size="12">5</text>
<line x1="233.51" y1="548" x2="233.51" y2="554" stroke="#222"/>
<text x="233.51" y="572" text-anchor="middle" font-family="Arial" font-size="12">10</text>
<line x1="311.27" y1="548" x2="311.27" y2="554" stroke="#222"/>
<text x="311.27" y="572" text-anchor="middle" font-family="Arial" font-size="12">15</text>
<line x1="389.02" y1="548" x2="389.02" y2="554" stroke="#222"/>
<text x="389.02" y="572" text-anchor="middle" font-family="Arial" font-size="12">20</text>
<line x1="451.22" y1="548" x2="451.22" y2="554" stroke="#222"/>
<text x="451.22" y="572" text-anchor="middle" font-family="Arial" font-size="12">24</text>
<line x1="528.98" y1="548" x2="528.98" y2="554" stroke="#222"/>
<text x="528.98" y="572" text-anchor="middle" font-family="Arial" font-size="12">29</text>
<line x1="606.73" y1="548" x2="606.73" y2="554" stroke="#222"/>
<text x="606.73" y="572" text-anchor="middle" font-family="Arial" font-size="12">34</text>
<line x1="684.49" y1="548" x2="684.49" y2="554" stroke="#222"/>
<text x="684.49" y="572" text-anchor="middle" font-family="Arial" font-size="12">39</text>
<line x1="762.24" y1="548" x2="762.24" y2="554" stroke="#222"/>
<text x="762.24" y="572" text-anchor="middle" font-family="Arial" font-size="12">44</text>
<line x1="840.00" y1="548" x2="840.00" y2="554" stroke="#222"/>
<text x="840.00" y="572" text-anchor="middle" font-family="Arial" font-size="12">49</text>
<polyline fill="none" stroke="#2563eb" stroke-width="2.5" points="78.00,473.11 93.55,479.47 109.10,466.17 124.65,451.11 140.20,451.44 155.76,370.44 171.31,361.33 186.86,361.85 202.41,365.79 217.96,287.06 233.51,364.60 249.06,369.09 264.61,361.83 280.16,369.11 295.71,369.88 311.27,360.72 326.82,279.76 342.37,279.72 357.92,198.92 373.47,273.28 389.02,203.27 404.57,254.20 420.12,264.69 435.67,336.50 451.22,332.13 466.78,402.09 482.33,428.55 497.88,407.56 513.43,402.99 528.98,416.64 544.53,412.01 560.08,420.17 575.63,361.12 591.18,376.28 606.73,371.98 622.29,363.99 637.84,363.22 653.39,432.13 668.94,350.14 684.49,343.29 700.04,353.25 715.59,345.97 731.14,351.32 746.69,409.86 762.24,416.01 777.80,429.10 793.35,399.95 808.90,407.06 824.45,348.12 840.00,270.31"/>
<line x1="866" y1="80" x2="888" y2="80" stroke="#2563eb" stroke-width="3"/>
<text x="896" y="84" font-family="Arial" font-size="13">regular</text>
<polyline fill="none" stroke="#dc2626" stroke-width="2.5" points="78.00,189.36 93.55,189.54 109.10,191.31 124.65,188.19 140.20,192.93 155.76,191.71 171.31,182.10 186.86,180.89 202.41,175.70 217.96,174.71 233.51,172.67 249.06,186.87 264.61,175.62 280.16,194.01 295.71,179.11 311.27,182.97 326.82,187.88 342.37,193.47 357.92,180.99 373.47,190.95 389.02,198.33 404.57,181.89 420.12,217.48 435.67,224.25 451.22,229.79 466.78,214.44 482.33,229.09 497.88,204.13 513.43,194.55 528.98,197.80 544.53,208.99 560.08,195.60 575.63,189.00 591.18,197.27 606.73,189.58 622.29,189.59 637.84,195.35 653.39,201.47 668.94,199.41 684.49,217.88 700.04,199.46 715.59,212.53 731.14,197.80 746.69,198.55 762.24,192.80 777.80,200.74 793.35,204.28 808.90,245.38 824.45,232.20 840.00,222.64"/>
<line x1="866" y1="106" x2="888" y2="106" stroke="#dc2626" stroke-width="3"/>
<text x="896" y="110" font-family="Arial" font-size="13">punishment_1.0</text>
<polyline fill="none" stroke="#16a34a" stroke-width="2.5" points="78.00,347.03 93.55,286.39 109.10,281.11 124.65,285.19 140.20,283.27 155.76,274.68 171.31,291.47 186.86,295.06 202.41,294.72 217.96,283.23 233.51,264.06 249.06,233.57 264.61,246.71 280.16,241.79 295.71,252.73 311.27,253.95 326.82,264.63 342.37,241.29 357.92,242.75 373.47,232.90 389.02,284.53 404.57,305.60 420.12,314.23 435.67,307.41 451.22,337.57 466.78,284.56 482.33,265.59 497.88,262.28 513.43,278.91 528.98,248.82 544.53,257.28 560.08,263.38 575.63,274.60 591.18,278.33 606.73,291.39 622.29,286.03 637.84,306.58 653.39,278.60 668.94,278.15 684.49,268.60 700.04,264.90 715.59,258.07 731.14,266.07 746.69,285.77 762.24,305.39 777.80,332.31 793.35,319.90 808.90,333.07 824.45,302.91 840.00,312.82"/>
<line x1="866" y1="132" x2="888" y2="132" stroke="#16a34a" stroke-width="3"/>
<text x="896" y="136" font-family="Arial" font-size="13">punishment_0.5</text>
<polyline fill="none" stroke="#9333ea" stroke-width="2.5" points="78.00,339.26 93.55,361.54 109.10,340.54 124.65,339.88 140.20,338.30 155.76,340.20 171.31,304.71 186.86,314.52 202.41,315.81 217.96,305.02 233.51,299.18 249.06,338.74 264.61,322.09 280.16,284.41 295.71,274.78 311.27,282.32 326.82,261.76 342.37,299.63 357.92,316.03 373.47,337.91 389.02,361.97 404.57,383.63 420.12,375.70 435.67,404.77 451.22,396.01 466.78,344.22 482.33,339.42 497.88,312.98 513.43,299.46 528.98,309.13 544.53,338.70 560.08,313.13 575.63,314.42 591.18,309.81 606.73,334.73 622.29,336.15 637.84,358.28 653.39,377.61 668.94,386.57 684.49,336.61 700.04,318.62 715.59,302.50 731.14,291.22 746.69,287.76 762.24,301.97 777.80,302.86 793.35,303.05 808.90,303.99 824.45,330.80 840.00,342.31"/>
<line x1="866" y1="158" x2="888" y2="158" stroke="#9333ea" stroke-width="3"/>
<text x="896" y="162" font-family="Arial" font-size="13">punishment_0.25</text>
<text x="459.0" y="600" text-anchor="middle" font-family="Arial" font-size="14">Batch number</text>
<text transform="translate(22 303.0) rotate(-90)" text-anchor="middle" font-family="Arial" font-size="14">Average steps per batch</text>
</svg>